# Blender v2.83.0 OBJ File: ''
# www.blender.org
mtllib TexCubeSmooth.mtl
o Cube
v 1.000000 1.000000 -1.000000
v 1.000000 -1.000000 -1.000000
v 1.000000 1.000000 1.000000
v 1.000000 -1.000000 1.000000
v -1.000000 1.000000 -1.000000
v -1.000000 -1.000000 -1.000000
v -1.000000 1.000000 1.000000
v -1.000000 -1.000000 1.000000
vt 0.498047 0.041937
vt 0.725297 0.269187
vt 0.498047 0.269187
vt 0.952547 0.496438
vt 0.725297 0.496438
vt 0.043547 0.269187
vt 0.270797 0.496438
vt 0.043547 0.496438
vt 0.498047 0.496438
vt 0.725297 0.723688
vt 0.498047 0.723688
vt 0.270797 0.269187
vt 0.725297 0.041937
vt 0.952547 0.269187
vn -0.5773 0.5773 -0.5773
vn 0.5773 0.5773 0.5773
vn 0.5773 0.5773 -0.5773
vn -0.5773 -0.5773 0.5773
vn 0.5773 -0.5773 0.5773
vn -0.5773 0.5773 0.5773
vn -0.5773 -0.5773 -0.5773
vn 0.5773 -0.5773 -0.5773
usemtl Material
s 1
f 5/1/1 3/2/2 1/3/3
f 3/2/2 8/4/4 4/5/5
f 7/6/6 6/7/7 8/8/4
f 2/9/8 8/10/4 6/11/7
f 1/3/3 4/5/5 2/9/8
f 5/12/1 2/9/8 6/7/7
f 5/1/1 7/13/6 3/2/2
f 3/2/2 7/14/6 8/4/4
f 7/6/6 5/12/1 6/7/7
f 2/9/8 4/5/5 8/10/4
f 1/3/3 3/2/2 4/5/5
f 5/12/1 1/3/3 2/9/8
